<?xml version="1.0" encoding="utf-8" standalone="no"?>
<!DOCTYPE svg PUBLIC "-//W3C//DTD SVG 1.1//EN"
  "http://www.w3.org/Graphics/SVG/1.1/DTD/svg11.dtd">
<svg xmlns:xlink="http://www.w3.org/1999/xlink" width="576pt" height="465.6pt" viewBox="0 0 576 465.6" xmlns="http://www.w3.org/2000/svg" version="1.1">
 <metadata>
  <rdf:RDF xmlns:dc="http://purl.org/dc/elements/1.1/" xmlns:cc="http://creativecommons.org/ns#" xmlns:rdf="http://www.w3.org/1999/02/22-rdf-syntax-ns#">
   <cc:Work>
    <dc:type rdf:resource="http://purl.org/dc/dcmitype/StillImage"/>
    <dc:date>2022-04-13T16:54:14.819599</dc:date>
    <dc:format>image/svg+xml</dc:format>
    <dc:creator>
     <cc:Agent>
      <dc:title>Matplotlib v3.5.1, https://matplotlib.org/</dc:title>
     </cc:Agent>
    </dc:creator>
   </cc:Work>
  </rdf:RDF>
 </metadata>
 <defs>
  <style type="text/css">*{stroke-linejoin: round; stroke-linecap: butt}</style>
 </defs>
 <g id="figure_1">
  <g id="patch_1">
   <path d="M 0 465.6 
L 576 465.6 
L 576 0 
L 0 0 
L 0 465.6 
z
" style="fill: none"/>
  </g>
  <g id="axes_1">
   <g id="patch_2">
    <path d="M 72 407.4 
L 518.4 407.4 
L 518.4 55.872 
L 72 55.872 
z
" style="fill: #ffffff"/>
   </g>
   <g id="matplotlib.axis_1">
    <g id="xtick_1">
     <g id="line2d_1">
      <defs>
       <path id="m44bd4f7bfc" d="M 0 0 
L 0 3.5 
" style="stroke: #000000; stroke-width: 0.8"/>
      </defs>
      <g>
       <use xlink:href="#m44bd4f7bfc" x="76.122101" y="407.4" style="stroke: #000000; stroke-width: 0.8"/>
      </g>
     </g>
     <g id="text_1">
      <text style="font: 10px 'sans-serif'; text-anchor: middle" x="76.122101" y="421.998437" transform="rotate(-0, 76.122101, 421.998437)">-15</text>
     </g>
    </g>
    <g id="xtick_2">
     <g id="line2d_2">
      <g>
       <use xlink:href="#m44bd4f7bfc" x="149.148067" y="407.4" style="stroke: #000000; stroke-width: 0.8"/>
      </g>
     </g>
     <g id="text_2">
      <text style="font: 10px 'sans-serif'; text-anchor: middle" x="149.148067" y="421.998437" transform="rotate(-0, 149.148067, 421.998437)">-10</text>
     </g>
    </g>
    <g id="xtick_3">
     <g id="line2d_3">
      <g>
       <use xlink:href="#m44bd4f7bfc" x="222.174034" y="407.4" style="stroke: #000000; stroke-width: 0.8"/>
      </g>
     </g>
     <g id="text_3">
      <text style="font: 10px 'sans-serif'; text-anchor: middle" x="222.174034" y="421.998437" transform="rotate(-0, 222.174034, 421.998437)">-5</text>
     </g>
    </g>
    <g id="xtick_4">
     <g id="line2d_4">
      <g>
       <use xlink:href="#m44bd4f7bfc" x="295.2" y="407.4" style="stroke: #000000; stroke-width: 0.8"/>
      </g>
     </g>
     <g id="text_4">
      <text style="font: 10px 'sans-serif'; text-anchor: middle" x="295.2" y="421.998437" transform="rotate(-0, 295.2, 421.998437)">0</text>
     </g>
    </g>
    <g id="xtick_5">
     <g id="line2d_5">
      <g>
       <use xlink:href="#m44bd4f7bfc" x="368.225966" y="407.4" style="stroke: #000000; stroke-width: 0.8"/>
      </g>
     </g>
     <g id="text_5">
      <text style="font: 10px 'sans-serif'; text-anchor: middle" x="368.225966" y="421.998437" transform="rotate(-0, 368.225966, 421.998437)">5</text>
     </g>
    </g>
    <g id="xtick_6">
     <g id="line2d_6">
      <g>
       <use xlink:href="#m44bd4f7bfc" x="441.251933" y="407.4" style="stroke: #000000; stroke-width: 0.8"/>
      </g>
     </g>
     <g id="text_6">
      <text style="font: 10px 'sans-serif'; text-anchor: middle" x="441.251933" y="421.998437" transform="rotate(-0, 441.251933, 421.998437)">10</text>
     </g>
    </g>
    <g id="xtick_7">
     <g id="line2d_7">
      <g>
       <use xlink:href="#m44bd4f7bfc" x="514.277899" y="407.4" style="stroke: #000000; stroke-width: 0.8"/>
      </g>
     </g>
     <g id="text_7">
      <text style="font: 10px 'sans-serif'; text-anchor: middle" x="514.277899" y="421.998437" transform="rotate(-0, 514.277899, 421.998437)">15</text>
     </g>
    </g>
    <g id="text_8">
     <text style="font: 10px 'sans-serif'; text-anchor: middle" x="295.2" y="435.676562" transform="rotate(-0, 295.2, 435.676562)">x / $r_c$</text>
    </g>
   </g>
   <g id="matplotlib.axis_2">
    <g id="ytick_1">
     <g id="line2d_8">
      <defs>
       <path id="m6afbb194fd" d="M 0 0 
L -3.5 0 
" style="stroke: #000000; stroke-width: 0.8"/>
      </defs>
      <g>
       <use xlink:href="#m6afbb194fd" x="72" y="392.986543" style="stroke: #000000; stroke-width: 0.8"/>
      </g>
     </g>
     <g id="text_9">
      <text style="font: 10px 'sans-serif'; text-anchor: end" x="65" y="396.785762" transform="rotate(-0, 65, 396.785762)">0.00</text>
     </g>
    </g>
    <g id="ytick_2">
     <g id="line2d_9">
      <g>
       <use xlink:href="#m6afbb194fd" x="72" y="317.39418" style="stroke: #000000; stroke-width: 0.8"/>
      </g>
     </g>
     <g id="text_10">
      <text style="font: 10px 'sans-serif'; text-anchor: end" x="65" y="321.193399" transform="rotate(-0, 65, 321.193399)">0.01</text>
     </g>
    </g>
    <g id="ytick_3">
     <g id="line2d_10">
      <g>
       <use xlink:href="#m6afbb194fd" x="72" y="241.801818" style="stroke: #000000; stroke-width: 0.8"/>
      </g>
     </g>
     <g id="text_11">
      <text style="font: 10px 'sans-serif'; text-anchor: end" x="65" y="245.601037" transform="rotate(-0, 65, 245.601037)">0.02</text>
     </g>
    </g>
    <g id="ytick_4">
     <g id="line2d_11">
      <g>
       <use xlink:href="#m6afbb194fd" x="72" y="166.209455" style="stroke: #000000; stroke-width: 0.8"/>
      </g>
     </g>
     <g id="text_12">
      <text style="font: 10px 'sans-serif'; text-anchor: end" x="65" y="170.008674" transform="rotate(-0, 65, 170.008674)">0.03</text>
     </g>
    </g>
    <g id="ytick_5">
     <g id="line2d_12">
      <g>
       <use xlink:href="#m6afbb194fd" x="72" y="90.617093" style="stroke: #000000; stroke-width: 0.8"/>
      </g>
     </g>
     <g id="text_13">
      <text style="font: 10px 'sans-serif'; text-anchor: end" x="65" y="94.416311" transform="rotate(-0, 65, 94.416311)">0.04</text>
     </g>
    </g>
    <g id="text_14">
     <text style="font: 10px 'sans-serif'; text-anchor: middle" x="30.654687" y="231.636" transform="rotate(-90, 30.654687, 231.636)">$\tau$</text>
    </g>
   </g>
   <g id="line2d_13">
    <path d="M 92.290909 391.421455 
L 93.974802 390.702161 
L 97.342588 389.642842 
L 102.394266 388.372418 
L 112.497624 386.165078 
L 131.020445 382.16263 
L 141.123802 379.752352 
L 149.543267 377.540009 
L 157.962731 375.092091 
L 164.698303 372.930009 
L 171.433874 370.555379 
L 178.169445 367.935174 
L 184.905017 365.031384 
L 189.956696 362.640972 
L 195.008374 360.044391 
L 200.060053 357.216522 
L 205.111731 354.128071 
L 210.16341 350.744446 
L 215.215089 347.024228 
L 220.266767 342.917118 
L 223.634553 339.934074 
L 227.002339 336.729801 
L 230.370124 333.278532 
L 233.73791 329.549906 
L 237.105696 325.507885 
L 240.473482 321.109361 
L 243.841267 316.302354 
L 247.209053 311.023669 
L 250.576839 305.195813 
L 253.944625 298.722923 
L 257.31241 291.485352 
L 260.680196 283.332473 
L 264.047982 274.07317 
L 265.731875 268.954848 
L 267.415768 263.46353 
L 269.099661 257.55798 
L 270.783553 251.191653 
L 272.467446 244.312182 
L 274.151339 236.860978 
L 275.835232 228.773053 
L 277.519125 219.977219 
L 279.203018 210.396885 
L 280.886911 199.951647 
L 282.570803 188.559668 
L 284.254696 176.14027 
L 285.938589 162.614411 
L 287.622482 147.896769 
L 289.306375 131.863776 
L 290.990268 114.260144 
L 292.674161 94.467154 
L 294.358054 71.850545 
L 296.041946 71.850545 
L 297.725839 94.467154 
L 299.409732 114.260144 
L 301.093625 131.863776 
L 302.777518 147.896769 
L 304.461411 162.614411 
L 306.145304 176.14027 
L 307.829197 188.559668 
L 309.513089 199.951647 
L 311.196982 210.396885 
L 312.880875 219.977219 
L 314.564768 228.773053 
L 316.248661 236.860978 
L 317.932554 244.312182 
L 319.616447 251.191653 
L 321.300339 257.55798 
L 322.984232 263.46353 
L 326.352018 274.07317 
L 329.719804 283.332473 
L 333.08759 291.485352 
L 336.455375 298.722923 
L 339.823161 305.195813 
L 343.190947 311.023669 
L 346.558733 316.302354 
L 349.926518 321.109361 
L 353.294304 325.507885 
L 356.66209 329.549906 
L 360.029876 333.278532 
L 363.397661 336.729801 
L 366.765447 339.934074 
L 370.133233 342.917118 
L 375.184911 347.024228 
L 380.23659 350.744446 
L 385.288269 354.128071 
L 390.339947 357.216522 
L 395.391626 360.044391 
L 400.443304 362.640972 
L 405.494983 365.031384 
L 412.230555 367.935174 
L 418.966126 370.555379 
L 425.701697 372.930009 
L 432.437269 375.092091 
L 440.856733 377.540009 
L 449.276198 379.752352 
L 459.379555 382.16263 
L 472.850698 385.099717 
L 488.005734 388.372418 
L 493.057412 389.642842 
L 496.425198 390.702161 
L 498.109091 391.421455 
L 498.109091 391.421455 
" clip-path="url(#p9d90615e3f)" style="fill: none; stroke: #1f77b4; stroke-width: 1.5; stroke-linecap: square"/>
   </g>
   <g id="patch_3">
    <path d="M 72 407.4 
L 72 55.872 
" style="fill: none; stroke: #000000; stroke-width: 0.8; stroke-linejoin: miter; stroke-linecap: square"/>
   </g>
   <g id="patch_4">
    <path d="M 518.4 407.4 
L 518.4 55.872 
" style="fill: none; stroke: #000000; stroke-width: 0.8; stroke-linejoin: miter; stroke-linecap: square"/>
   </g>
   <g id="patch_5">
    <path d="M 72 407.4 
L 518.4 407.4 
" style="fill: none; stroke: #000000; stroke-width: 0.8; stroke-linejoin: miter; stroke-linecap: square"/>
   </g>
   <g id="patch_6">
    <path d="M 72 55.872 
L 518.4 55.872 
" style="fill: none; stroke: #000000; stroke-width: 0.8; stroke-linejoin: miter; stroke-linecap: square"/>
   </g>
  </g>
 </g>
 <defs>
  <clipPath id="p9d90615e3f">
   <rect x="72" y="55.872" width="446.4" height="351.528"/>
  </clipPath>
 </defs>
</svg>
