<?xml version="1.0" encoding="utf-8" standalone="no"?>
<!DOCTYPE svg PUBLIC "-//W3C//DTD SVG 1.1//EN"
  "http://www.w3.org/Graphics/SVG/1.1/DTD/svg11.dtd">
<svg xmlns:xlink="http://www.w3.org/1999/xlink" width="288pt" height="232.8pt" viewBox="0 0 288 232.8" xmlns="http://www.w3.org/2000/svg" version="1.1">
 <metadata>
  <rdf:RDF xmlns:dc="http://purl.org/dc/elements/1.1/" xmlns:cc="http://creativecommons.org/ns#" xmlns:rdf="http://www.w3.org/1999/02/22-rdf-syntax-ns#">
   <cc:Work>
    <dc:type rdf:resource="http://purl.org/dc/dcmitype/StillImage"/>
    <dc:date>2022-04-13T19:30:23.949615</dc:date>
    <dc:format>image/svg+xml</dc:format>
    <dc:creator>
     <cc:Agent>
      <dc:title>Matplotlib v3.5.1, https://matplotlib.org/</dc:title>
     </cc:Agent>
    </dc:creator>
   </cc:Work>
  </rdf:RDF>
 </metadata>
 <defs>
  <style type="text/css">*{stroke-linejoin: round; stroke-linecap: butt}</style>
 </defs>
 <g id="figure_1">
  <g id="patch_1">
   <path d="M 0 232.8 
L 288 232.8 
L 288 0 
L 0 0 
L 0 232.8 
z
" style="fill: none"/>
  </g>
  <g id="axes_1">
   <g id="patch_2">
    <path d="M 36 203.7 
L 259.2 203.7 
L 259.2 27.936 
L 36 27.936 
z
" style="fill: #ffffff"/>
   </g>
   <g id="matplotlib.axis_1">
    <g id="xtick_1">
     <g id="line2d_1">
      <defs>
       <path id="m45704ab76a" d="M 0 0 
L 0 3.5 
" style="stroke: #000000; stroke-width: 0.8"/>
      </defs>
      <g>
       <use xlink:href="#m45704ab76a" x="38.061051" y="203.7" style="stroke: #000000; stroke-width: 0.8"/>
      </g>
     </g>
     <g id="text_1">
      <text style="font: 10px 'sans-serif'; text-anchor: middle" x="38.061051" y="218.298437" transform="rotate(-0, 38.061051, 218.298437)">-15</text>
     </g>
    </g>
    <g id="xtick_2">
     <g id="line2d_2">
      <g>
       <use xlink:href="#m45704ab76a" x="74.574034" y="203.7" style="stroke: #000000; stroke-width: 0.8"/>
      </g>
     </g>
     <g id="text_2">
      <text style="font: 10px 'sans-serif'; text-anchor: middle" x="74.574034" y="218.298437" transform="rotate(-0, 74.574034, 218.298437)">-10</text>
     </g>
    </g>
    <g id="xtick_3">
     <g id="line2d_3">
      <g>
       <use xlink:href="#m45704ab76a" x="111.087017" y="203.7" style="stroke: #000000; stroke-width: 0.8"/>
      </g>
     </g>
     <g id="text_3">
      <text style="font: 10px 'sans-serif'; text-anchor: middle" x="111.087017" y="218.298437" transform="rotate(-0, 111.087017, 218.298437)">-5</text>
     </g>
    </g>
    <g id="xtick_4">
     <g id="line2d_4">
      <g>
       <use xlink:href="#m45704ab76a" x="147.6" y="203.7" style="stroke: #000000; stroke-width: 0.8"/>
      </g>
     </g>
     <g id="text_4">
      <text style="font: 10px 'sans-serif'; text-anchor: middle" x="147.6" y="218.298437" transform="rotate(-0, 147.6, 218.298437)">0</text>
     </g>
    </g>
    <g id="xtick_5">
     <g id="line2d_5">
      <g>
       <use xlink:href="#m45704ab76a" x="184.112983" y="203.7" style="stroke: #000000; stroke-width: 0.8"/>
      </g>
     </g>
     <g id="text_5">
      <text style="font: 10px 'sans-serif'; text-anchor: middle" x="184.112983" y="218.298437" transform="rotate(-0, 184.112983, 218.298437)">5</text>
     </g>
    </g>
    <g id="xtick_6">
     <g id="line2d_6">
      <g>
       <use xlink:href="#m45704ab76a" x="220.625966" y="203.7" style="stroke: #000000; stroke-width: 0.8"/>
      </g>
     </g>
     <g id="text_6">
      <text style="font: 10px 'sans-serif'; text-anchor: middle" x="220.625966" y="218.298437" transform="rotate(-0, 220.625966, 218.298437)">10</text>
     </g>
    </g>
    <g id="xtick_7">
     <g id="line2d_7">
      <g>
       <use xlink:href="#m45704ab76a" x="257.138949" y="203.7" style="stroke: #000000; stroke-width: 0.8"/>
      </g>
     </g>
     <g id="text_7">
      <text style="font: 10px 'sans-serif'; text-anchor: middle" x="257.138949" y="218.298437" transform="rotate(-0, 257.138949, 218.298437)">15</text>
     </g>
    </g>
    <g id="text_8">
     <text style="font: 10px 'sans-serif'; text-anchor: middle" x="147.6" y="231.976562" transform="rotate(-0, 147.6, 231.976562)">x / $r_c$</text>
    </g>
   </g>
   <g id="matplotlib.axis_2">
    <g id="ytick_1">
     <g id="line2d_8">
      <defs>
       <path id="m5936ac83bd" d="M 0 0 
L -3.5 0 
" style="stroke: #000000; stroke-width: 0.8"/>
      </defs>
      <g>
       <use xlink:href="#m5936ac83bd" x="36" y="196.493272" style="stroke: #000000; stroke-width: 0.8"/>
      </g>
     </g>
     <g id="text_9">
      <text style="font: 10px 'sans-serif'; text-anchor: end" x="29" y="200.29249" transform="rotate(-0, 29, 200.29249)">0.00</text>
     </g>
    </g>
    <g id="ytick_2">
     <g id="line2d_9">
      <g>
       <use xlink:href="#m5936ac83bd" x="36" y="158.69709" style="stroke: #000000; stroke-width: 0.8"/>
      </g>
     </g>
     <g id="text_10">
      <text style="font: 10px 'sans-serif'; text-anchor: end" x="29" y="162.496309" transform="rotate(-0, 29, 162.496309)">0.01</text>
     </g>
    </g>
    <g id="ytick_3">
     <g id="line2d_10">
      <g>
       <use xlink:href="#m5936ac83bd" x="36" y="120.900909" style="stroke: #000000; stroke-width: 0.8"/>
      </g>
     </g>
     <g id="text_11">
      <text style="font: 10px 'sans-serif'; text-anchor: end" x="29" y="124.700128" transform="rotate(-0, 29, 124.700128)">0.02</text>
     </g>
    </g>
    <g id="ytick_4">
     <g id="line2d_11">
      <g>
       <use xlink:href="#m5936ac83bd" x="36" y="83.104728" style="stroke: #000000; stroke-width: 0.8"/>
      </g>
     </g>
     <g id="text_12">
      <text style="font: 10px 'sans-serif'; text-anchor: end" x="29" y="86.903946" transform="rotate(-0, 29, 86.903946)">0.03</text>
     </g>
    </g>
    <g id="ytick_5">
     <g id="line2d_12">
      <g>
       <use xlink:href="#m5936ac83bd" x="36" y="45.308546" style="stroke: #000000; stroke-width: 0.8"/>
      </g>
     </g>
     <g id="text_13">
      <text style="font: 10px 'sans-serif'; text-anchor: end" x="29" y="49.107765" transform="rotate(-0, 29, 49.107765)">0.04</text>
     </g>
    </g>
    <g id="text_14">
     <text style="font: 10px 'sans-serif'; text-anchor: middle" x="-5.345313" y="115.818" transform="rotate(-90, -5.345313, 115.818)">$\tau$</text>
    </g>
   </g>
   <g id="line2d_13">
    <path d="M 46.145455 195.710727 
L 47.829347 195.067927 
L 51.197133 194.186209 
L 58.774651 192.549859 
L 68.036062 190.493192 
L 74.771633 188.770004 
L 80.665258 187.017858 
L 85.716937 185.277689 
L 89.926669 183.618713 
L 94.136401 181.729773 
L 98.346134 179.564409 
L 101.713919 177.59426 
L 105.081705 175.372223 
L 108.449491 172.850484 
L 110.97533 170.725897 
L 113.501169 168.364901 
L 116.027009 165.725497 
L 118.552848 162.753943 
L 121.078687 159.380286 
L 123.604527 155.511834 
L 125.288419 152.597906 
L 126.972312 149.361461 
L 128.656205 145.742676 
L 130.340098 141.666236 
L 132.023991 137.036585 
L 133.707884 131.731765 
L 135.391777 125.595827 
L 137.07567 118.430489 
L 138.759562 109.988609 
L 140.443455 99.975823 
L 142.127348 88.070135 
L 143.811241 73.948385 
L 145.495134 57.130072 
L 146.33708 47.233577 
L 147.179027 35.925273 
L 148.020973 35.925273 
L 149.704866 57.130072 
L 151.388759 73.948385 
L 153.072652 88.070135 
L 154.756545 99.975823 
L 156.440438 109.988609 
L 158.12433 118.430489 
L 159.808223 125.595827 
L 161.492116 131.731765 
L 163.176009 137.036585 
L 164.859902 141.666236 
L 166.543795 145.742676 
L 168.227688 149.361461 
L 169.911581 152.597906 
L 172.43742 156.863219 
L 174.963259 160.554681 
L 177.489098 163.78529 
L 180.014938 166.639266 
L 182.540777 169.180552 
L 185.066616 171.458559 
L 188.434402 174.152297 
L 191.802188 176.517441 
L 195.169974 178.608261 
L 198.537759 180.46715 
L 202.747492 182.515692 
L 206.957224 184.307614 
L 212.008902 186.178747 
L 217.060581 187.801446 
L 222.954206 189.446307 
L 229.689777 191.081315 
L 239.793135 193.260724 
L 245.68676 194.596747 
L 248.212599 195.35108 
L 249.054545 195.710727 
L 249.054545 195.710727 
" clip-path="url(#pd68ca9a039)" style="fill: none; stroke: #1f77b4; stroke-width: 1.5; stroke-linecap: square"/>
   </g>
   <g id="patch_3">
    <path d="M 36 203.7 
L 36 27.936 
" style="fill: none; stroke: #000000; stroke-width: 0.8; stroke-linejoin: miter; stroke-linecap: square"/>
   </g>
   <g id="patch_4">
    <path d="M 259.2 203.7 
L 259.2 27.936 
" style="fill: none; stroke: #000000; stroke-width: 0.8; stroke-linejoin: miter; stroke-linecap: square"/>
   </g>
   <g id="patch_5">
    <path d="M 36 203.7 
L 259.2 203.7 
" style="fill: none; stroke: #000000; stroke-width: 0.8; stroke-linejoin: miter; stroke-linecap: square"/>
   </g>
   <g id="patch_6">
    <path d="M 36 27.936 
L 259.2 27.936 
" style="fill: none; stroke: #000000; stroke-width: 0.8; stroke-linejoin: miter; stroke-linecap: square"/>
   </g>
  </g>
 </g>
 <defs>
  <clipPath id="pd68ca9a039">
   <rect x="36" y="27.936" width="223.2" height="175.764"/>
  </clipPath>
 </defs>
</svg>
