<?xml version="1.0" encoding="utf-8" standalone="no"?>
<!DOCTYPE svg PUBLIC "-//W3C//DTD SVG 1.1//EN"
  "http://www.w3.org/Graphics/SVG/1.1/DTD/svg11.dtd">
<svg xmlns:xlink="http://www.w3.org/1999/xlink" width="288pt" height="232.8pt" viewBox="0 0 288 232.8" xmlns="http://www.w3.org/2000/svg" version="1.1">
 <metadata>
  <rdf:RDF xmlns:dc="http://purl.org/dc/elements/1.1/" xmlns:cc="http://creativecommons.org/ns#" xmlns:rdf="http://www.w3.org/1999/02/22-rdf-syntax-ns#">
   <cc:Work>
    <dc:type rdf:resource="http://purl.org/dc/dcmitype/StillImage"/>
    <dc:date>2022-04-10T13:49:47.870541</dc:date>
    <dc:format>image/svg+xml</dc:format>
    <dc:creator>
     <cc:Agent>
      <dc:title>Matplotlib v3.5.1, https://matplotlib.org/</dc:title>
     </cc:Agent>
    </dc:creator>
   </cc:Work>
  </rdf:RDF>
 </metadata>
 <defs>
  <style type="text/css">*{stroke-linejoin: round; stroke-linecap: butt}</style>
 </defs>
 <g id="figure_1">
  <g id="patch_1">
   <path d="M 0 232.8 
L 288 232.8 
L 288 0 
L 0 0 
L 0 232.8 
z
" style="fill: none"/>
  </g>
  <g id="axes_1">
   <g id="patch_2">
    <path d="M 36 203.7 
L 259.2 203.7 
L 259.2 27.936 
L 36 27.936 
z
" style="fill: #ffffff"/>
   </g>
   <g id="matplotlib.axis_1">
    <g id="xtick_1">
     <g id="line2d_1">
      <defs>
       <path id="m5db354ce76" d="M 0 0 
L 0 3.5 
" style="stroke: #000000; stroke-width: 0.8"/>
      </defs>
      <g>
       <use xlink:href="#m5db354ce76" x="44.074954" y="203.7" style="stroke: #000000; stroke-width: 0.8"/>
      </g>
     </g>
     <g id="text_1">
      <text style="font: 10px 'sans-serif'; text-anchor: middle" x="44.074954" y="218.298437" transform="rotate(-0, 44.074954, 218.298437)">-15</text>
     </g>
    </g>
    <g id="xtick_2">
     <g id="line2d_2">
      <g>
       <use xlink:href="#m5db354ce76" x="78.583302" y="203.7" style="stroke: #000000; stroke-width: 0.8"/>
      </g>
     </g>
     <g id="text_2">
      <text style="font: 10px 'sans-serif'; text-anchor: middle" x="78.583302" y="218.298437" transform="rotate(-0, 78.583302, 218.298437)">-10</text>
     </g>
    </g>
    <g id="xtick_3">
     <g id="line2d_3">
      <g>
       <use xlink:href="#m5db354ce76" x="113.091651" y="203.7" style="stroke: #000000; stroke-width: 0.8"/>
      </g>
     </g>
     <g id="text_3">
      <text style="font: 10px 'sans-serif'; text-anchor: middle" x="113.091651" y="218.298437" transform="rotate(-0, 113.091651, 218.298437)">-5</text>
     </g>
    </g>
    <g id="xtick_4">
     <g id="line2d_4">
      <g>
       <use xlink:href="#m5db354ce76" x="147.6" y="203.7" style="stroke: #000000; stroke-width: 0.8"/>
      </g>
     </g>
     <g id="text_4">
      <text style="font: 10px 'sans-serif'; text-anchor: middle" x="147.6" y="218.298437" transform="rotate(-0, 147.6, 218.298437)">0</text>
     </g>
    </g>
    <g id="xtick_5">
     <g id="line2d_5">
      <g>
       <use xlink:href="#m5db354ce76" x="182.108349" y="203.7" style="stroke: #000000; stroke-width: 0.8"/>
      </g>
     </g>
     <g id="text_5">
      <text style="font: 10px 'sans-serif'; text-anchor: middle" x="182.108349" y="218.298437" transform="rotate(-0, 182.108349, 218.298437)">5</text>
     </g>
    </g>
    <g id="xtick_6">
     <g id="line2d_6">
      <g>
       <use xlink:href="#m5db354ce76" x="216.616698" y="203.7" style="stroke: #000000; stroke-width: 0.8"/>
      </g>
     </g>
     <g id="text_6">
      <text style="font: 10px 'sans-serif'; text-anchor: middle" x="216.616698" y="218.298437" transform="rotate(-0, 216.616698, 218.298437)">10</text>
     </g>
    </g>
    <g id="xtick_7">
     <g id="line2d_7">
      <g>
       <use xlink:href="#m5db354ce76" x="251.125046" y="203.7" style="stroke: #000000; stroke-width: 0.8"/>
      </g>
     </g>
     <g id="text_7">
      <text style="font: 10px 'sans-serif'; text-anchor: middle" x="251.125046" y="218.298437" transform="rotate(-0, 251.125046, 218.298437)">15</text>
     </g>
    </g>
    <g id="text_8">
     <text style="font: 10px 'sans-serif'; text-anchor: middle" x="147.6" y="231.976562" transform="rotate(-0, 147.6, 231.976562)">x / $r_c$</text>
    </g>
   </g>
   <g id="matplotlib.axis_2">
    <g id="ytick_1">
     <g id="line2d_8">
      <defs>
       <path id="mf341354fa2" d="M 0 0 
L -3.5 0 
" style="stroke: #000000; stroke-width: 0.8"/>
      </defs>
      <g>
       <use xlink:href="#mf341354fa2" x="36" y="195.710727" style="stroke: #000000; stroke-width: 0.8"/>
      </g>
     </g>
     <g id="text_9">
      <text style="font: 10px 'sans-serif'; text-anchor: end" x="29" y="199.509946" transform="rotate(-0, 29, 199.509946)">0.00</text>
     </g>
    </g>
    <g id="ytick_2">
     <g id="line2d_9">
      <g>
       <use xlink:href="#mf341354fa2" x="36" y="169.810965" style="stroke: #000000; stroke-width: 0.8"/>
      </g>
     </g>
     <g id="text_10">
      <text style="font: 10px 'sans-serif'; text-anchor: end" x="29" y="173.610184" transform="rotate(-0, 29, 173.610184)">0.25</text>
     </g>
    </g>
    <g id="ytick_3">
     <g id="line2d_10">
      <g>
       <use xlink:href="#mf341354fa2" x="36" y="143.911203" style="stroke: #000000; stroke-width: 0.8"/>
      </g>
     </g>
     <g id="text_11">
      <text style="font: 10px 'sans-serif'; text-anchor: end" x="29" y="147.710421" transform="rotate(-0, 29, 147.710421)">0.50</text>
     </g>
    </g>
    <g id="ytick_4">
     <g id="line2d_11">
      <g>
       <use xlink:href="#mf341354fa2" x="36" y="118.01144" style="stroke: #000000; stroke-width: 0.8"/>
      </g>
     </g>
     <g id="text_12">
      <text style="font: 10px 'sans-serif'; text-anchor: end" x="29" y="121.810659" transform="rotate(-0, 29, 121.810659)">0.75</text>
     </g>
    </g>
    <g id="ytick_5">
     <g id="line2d_12">
      <g>
       <use xlink:href="#mf341354fa2" x="36" y="92.111678" style="stroke: #000000; stroke-width: 0.8"/>
      </g>
     </g>
     <g id="text_13">
      <text style="font: 10px 'sans-serif'; text-anchor: end" x="29" y="95.910897" transform="rotate(-0, 29, 95.910897)">1.00</text>
     </g>
    </g>
    <g id="ytick_6">
     <g id="line2d_13">
      <g>
       <use xlink:href="#mf341354fa2" x="36" y="66.211916" style="stroke: #000000; stroke-width: 0.8"/>
      </g>
     </g>
     <g id="text_14">
      <text style="font: 10px 'sans-serif'; text-anchor: end" x="29" y="70.011135" transform="rotate(-0, 29, 70.011135)">1.25</text>
     </g>
    </g>
    <g id="ytick_7">
     <g id="line2d_14">
      <g>
       <use xlink:href="#mf341354fa2" x="36" y="40.312154" style="stroke: #000000; stroke-width: 0.8"/>
      </g>
     </g>
     <g id="text_15">
      <text style="font: 10px 'sans-serif'; text-anchor: end" x="29" y="44.111372" transform="rotate(-0, 29, 44.111372)">1.50</text>
     </g>
    </g>
    <g id="text_16">
     <text style="font: 10px 'sans-serif'; text-anchor: middle" x="0.654688" y="115.818" transform="rotate(-90, 0.654688, 115.818)">$P$</text>
    </g>
    <g id="text_17">
     <text style="font: 10px 'sans-serif'; text-anchor: start" x="36" y="24.936" transform="rotate(-0, 36, 24.936)">1e-10</text>
    </g>
   </g>
   <g id="line2d_15">
    <path d="M 46.145455 195.710727 
L 49.366234 195.710727 
L 52.587013 189.335931 
L 55.807792 184.047439 
L 59.028571 179.71599 
L 62.249351 175.515391 
L 65.47013 171.19881 
L 68.690909 166.634448 
L 71.911688 161.727844 
L 75.132468 156.401752 
L 78.353247 150.59004 
L 81.574026 144.235997 
L 84.794805 137.292904 
L 88.015584 129.726711 
L 91.236364 121.521269 
L 94.457143 112.686671 
L 97.677922 103.27125 
L 100.898701 93.37758 
L 104.119481 83.18257 
L 107.34026 72.96119 
L 110.561039 63.11246 
L 113.781818 54.184913 
L 117.002597 46.896304 
L 120.223377 42.140169 
L 123.444156 40.966528 
L 126.664935 44.523402 
L 129.885714 53.942259 
L 133.106494 70.142392 
L 136.327273 93.508316 
L 139.548052 123.232757 
L 142.768831 155.037813 
L 145.98961 169.164364 
L 149.21039 152.319335 
L 152.431169 130.736688 
L 155.651948 104.909756 
L 158.872727 80.039108 
L 162.093506 59.949902 
L 165.314286 46.019136 
L 168.535065 38.244233 
L 171.755844 35.925273 
L 174.976623 38.05771 
L 178.197403 43.571146 
L 181.418182 51.465921 
L 184.638961 60.883189 
L 187.85974 71.130251 
L 191.080519 81.677376 
L 194.301299 92.139875 
L 197.522078 102.253814 
L 200.742857 111.850791 
L 203.963636 120.834813 
L 207.184416 129.162756 
L 210.405195 136.828817 
L 213.625974 143.852906 
L 216.846753 150.272538 
L 220.067532 156.137702 
L 223.288312 161.508123 
L 226.509091 166.452561 
L 229.72987 171.050401 
L 232.950649 175.397821 
L 236.171429 179.628206 
L 239.392208 183.990137 
L 242.612987 189.311523 
L 245.833766 195.710727 
L 249.054545 195.710727 
" clip-path="url(#p191d41d5fc)" style="fill: none; stroke: #000000; stroke-width: 1.5; stroke-linecap: square"/>
   </g>
   <g id="patch_3">
    <path d="M 36 203.7 
L 36 27.936 
" style="fill: none; stroke: #000000; stroke-width: 0.8; stroke-linejoin: miter; stroke-linecap: square"/>
   </g>
   <g id="patch_4">
    <path d="M 259.2 203.7 
L 259.2 27.936 
" style="fill: none; stroke: #000000; stroke-width: 0.8; stroke-linejoin: miter; stroke-linecap: square"/>
   </g>
   <g id="patch_5">
    <path d="M 36 203.7 
L 259.2 203.7 
" style="fill: none; stroke: #000000; stroke-width: 0.8; stroke-linejoin: miter; stroke-linecap: square"/>
   </g>
   <g id="patch_6">
    <path d="M 36 27.936 
L 259.2 27.936 
" style="fill: none; stroke: #000000; stroke-width: 0.8; stroke-linejoin: miter; stroke-linecap: square"/>
   </g>
  </g>
 </g>
 <defs>
  <clipPath id="p191d41d5fc">
   <rect x="36" y="27.936" width="223.2" height="175.764"/>
  </clipPath>
 </defs>
</svg>
