<?xml version="1.0" encoding="utf-8" standalone="no"?>
<!DOCTYPE svg PUBLIC "-//W3C//DTD SVG 1.1//EN"
  "http://www.w3.org/Graphics/SVG/1.1/DTD/svg11.dtd">
<svg xmlns:xlink="http://www.w3.org/1999/xlink" width="288pt" height="232.8pt" viewBox="0 0 288 232.8" xmlns="http://www.w3.org/2000/svg" version="1.1">
 <metadata>
  <rdf:RDF xmlns:dc="http://purl.org/dc/elements/1.1/" xmlns:cc="http://creativecommons.org/ns#" xmlns:rdf="http://www.w3.org/1999/02/22-rdf-syntax-ns#">
   <cc:Work>
    <dc:type rdf:resource="http://purl.org/dc/dcmitype/StillImage"/>
    <dc:date>2022-04-13T12:24:23.006492</dc:date>
    <dc:format>image/svg+xml</dc:format>
    <dc:creator>
     <cc:Agent>
      <dc:title>Matplotlib v3.5.1, https://matplotlib.org/</dc:title>
     </cc:Agent>
    </dc:creator>
   </cc:Work>
  </rdf:RDF>
 </metadata>
 <defs>
  <style type="text/css">*{stroke-linejoin: round; stroke-linecap: butt}</style>
 </defs>
 <g id="figure_1">
  <g id="patch_1">
   <path d="M 0 232.8 
L 288 232.8 
L 288 0 
L 0 0 
L 0 232.8 
z
" style="fill: none"/>
  </g>
  <g id="axes_1">
   <g id="patch_2">
    <path d="M 36 203.7 
L 259.2 203.7 
L 259.2 27.936 
L 36 27.936 
z
" style="fill: #ffffff"/>
   </g>
   <g id="matplotlib.axis_1">
    <g id="xtick_1">
     <g id="line2d_1">
      <defs>
       <path id="m74ceecf89d" d="M 0 0 
L 0 3.5 
" style="stroke: #000000; stroke-width: 0.8"/>
      </defs>
      <g>
       <use xlink:href="#m74ceecf89d" x="44.074954" y="203.7" style="stroke: #000000; stroke-width: 0.8"/>
      </g>
     </g>
     <g id="text_1">
      <text style="font: 10px 'sans-serif'; text-anchor: middle" x="44.074954" y="218.298437" transform="rotate(-0, 44.074954, 218.298437)">-15</text>
     </g>
    </g>
    <g id="xtick_2">
     <g id="line2d_2">
      <g>
       <use xlink:href="#m74ceecf89d" x="78.583302" y="203.7" style="stroke: #000000; stroke-width: 0.8"/>
      </g>
     </g>
     <g id="text_2">
      <text style="font: 10px 'sans-serif'; text-anchor: middle" x="78.583302" y="218.298437" transform="rotate(-0, 78.583302, 218.298437)">-10</text>
     </g>
    </g>
    <g id="xtick_3">
     <g id="line2d_3">
      <g>
       <use xlink:href="#m74ceecf89d" x="113.091651" y="203.7" style="stroke: #000000; stroke-width: 0.8"/>
      </g>
     </g>
     <g id="text_3">
      <text style="font: 10px 'sans-serif'; text-anchor: middle" x="113.091651" y="218.298437" transform="rotate(-0, 113.091651, 218.298437)">-5</text>
     </g>
    </g>
    <g id="xtick_4">
     <g id="line2d_4">
      <g>
       <use xlink:href="#m74ceecf89d" x="147.6" y="203.7" style="stroke: #000000; stroke-width: 0.8"/>
      </g>
     </g>
     <g id="text_4">
      <text style="font: 10px 'sans-serif'; text-anchor: middle" x="147.6" y="218.298437" transform="rotate(-0, 147.6, 218.298437)">0</text>
     </g>
    </g>
    <g id="xtick_5">
     <g id="line2d_5">
      <g>
       <use xlink:href="#m74ceecf89d" x="182.108349" y="203.7" style="stroke: #000000; stroke-width: 0.8"/>
      </g>
     </g>
     <g id="text_5">
      <text style="font: 10px 'sans-serif'; text-anchor: middle" x="182.108349" y="218.298437" transform="rotate(-0, 182.108349, 218.298437)">5</text>
     </g>
    </g>
    <g id="xtick_6">
     <g id="line2d_6">
      <g>
       <use xlink:href="#m74ceecf89d" x="216.616698" y="203.7" style="stroke: #000000; stroke-width: 0.8"/>
      </g>
     </g>
     <g id="text_6">
      <text style="font: 10px 'sans-serif'; text-anchor: middle" x="216.616698" y="218.298437" transform="rotate(-0, 216.616698, 218.298437)">10</text>
     </g>
    </g>
    <g id="xtick_7">
     <g id="line2d_7">
      <g>
       <use xlink:href="#m74ceecf89d" x="251.125046" y="203.7" style="stroke: #000000; stroke-width: 0.8"/>
      </g>
     </g>
     <g id="text_7">
      <text style="font: 10px 'sans-serif'; text-anchor: middle" x="251.125046" y="218.298437" transform="rotate(-0, 251.125046, 218.298437)">15</text>
     </g>
    </g>
    <g id="text_8">
     <text style="font: 10px 'sans-serif'; text-anchor: middle" x="147.6" y="231.976562" transform="rotate(-0, 147.6, 231.976562)">x / $r_c$</text>
    </g>
   </g>
   <g id="matplotlib.axis_2">
    <g id="ytick_1">
     <g id="line2d_8">
      <defs>
       <path id="m480d5bdd7b" d="M 0 0 
L -3.5 0 
" style="stroke: #000000; stroke-width: 0.8"/>
      </defs>
      <g>
       <use xlink:href="#m480d5bdd7b" x="36" y="195.710727" style="stroke: #000000; stroke-width: 0.8"/>
      </g>
     </g>
     <g id="text_9">
      <text style="font: 10px 'sans-serif'; text-anchor: end" x="29" y="199.509946" transform="rotate(-0, 29, 199.509946)">0</text>
     </g>
    </g>
    <g id="ytick_2">
     <g id="line2d_9">
      <g>
       <use xlink:href="#m480d5bdd7b" x="36" y="161.608065" style="stroke: #000000; stroke-width: 0.8"/>
      </g>
     </g>
     <g id="text_10">
      <text style="font: 10px 'sans-serif'; text-anchor: end" x="29" y="165.407284" transform="rotate(-0, 29, 165.407284)">1</text>
     </g>
    </g>
    <g id="ytick_3">
     <g id="line2d_10">
      <g>
       <use xlink:href="#m480d5bdd7b" x="36" y="127.505403" style="stroke: #000000; stroke-width: 0.8"/>
      </g>
     </g>
     <g id="text_11">
      <text style="font: 10px 'sans-serif'; text-anchor: end" x="29" y="131.304622" transform="rotate(-0, 29, 131.304622)">2</text>
     </g>
    </g>
    <g id="ytick_4">
     <g id="line2d_11">
      <g>
       <use xlink:href="#m480d5bdd7b" x="36" y="93.402741" style="stroke: #000000; stroke-width: 0.8"/>
      </g>
     </g>
     <g id="text_12">
      <text style="font: 10px 'sans-serif'; text-anchor: end" x="29" y="97.20196" transform="rotate(-0, 29, 97.20196)">3</text>
     </g>
    </g>
    <g id="ytick_5">
     <g id="line2d_12">
      <g>
       <use xlink:href="#m480d5bdd7b" x="36" y="59.300079" style="stroke: #000000; stroke-width: 0.8"/>
      </g>
     </g>
     <g id="text_13">
      <text style="font: 10px 'sans-serif'; text-anchor: end" x="29" y="63.099297" transform="rotate(-0, 29, 63.099297)">4</text>
     </g>
    </g>
    <g id="text_14">
     <text style="font: 10px 'sans-serif'; text-anchor: middle" x="16.557812" y="115.818" transform="rotate(-90, 16.557812, 115.818)">$P$</text>
    </g>
    <g id="text_15">
     <text style="font: 10px 'sans-serif'; text-anchor: start" x="36" y="24.936" transform="rotate(-0, 36, 24.936)">1e-10</text>
    </g>
   </g>
   <g id="line2d_13">
    <path d="M 46.145455 195.710727 
L 54.102674 195.629041 
L 59.672727 195.290642 
L 65.242781 194.724828 
L 70.017112 194.028147 
L 74.791444 193.088262 
L 78.770053 192.072984 
L 82.748663 190.794046 
L 85.931551 189.538453 
L 89.114439 188.032451 
L 92.297326 186.22652 
L 94.684492 184.639764 
L 97.071658 182.821488 
L 99.458824 180.738072 
L 101.845989 178.351367 
L 104.233155 175.618369 
L 106.620321 172.490994 
L 109.007487 168.916041 
L 111.394652 164.835408 
L 113.781818 160.186727 
L 116.168984 154.904569 
L 118.55615 148.92245 
L 120.943316 142.17594 
L 123.330481 134.607263 
L 125.717647 126.171913 
L 128.104813 116.848028 
L 130.491979 106.649675 
L 133.674866 91.822311 
L 138.449198 67.944444 
L 141.632086 52.542366 
L 143.223529 45.801169 
L 144.814973 40.315609 
L 145.610695 38.241977 
L 146.406417 36.740965 
L 147.202139 35.925273 
L 147.997861 35.925273 
L 148.793583 36.740965 
L 149.589305 38.241977 
L 150.385027 40.315609 
L 151.180749 42.864387 
L 152.772193 49.049313 
L 154.363636 56.223319 
L 157.546524 71.960985 
L 162.320856 95.645955 
L 165.503743 110.143417 
L 167.890909 120.054765 
L 170.278075 129.081935 
L 172.665241 137.224617 
L 175.052406 144.513475 
L 177.439572 150.998326 
L 179.826738 156.739786 
L 182.213904 161.803398 
L 184.60107 166.255578 
L 186.988235 170.160913 
L 189.375401 173.580453 
L 191.762567 176.570707 
L 194.149733 179.183185 
L 196.536898 181.464261 
L 198.924064 183.45529 
L 201.31123 185.19287 
L 203.698396 186.709197 
L 206.881283 188.434974 
L 210.064171 189.874093 
L 213.247059 191.073779 
L 217.225668 192.295347 
L 221.204278 193.264296 
L 225.97861 194.15969 
L 230.752941 194.820777 
L 236.322995 195.352429 
L 241.893048 195.658893 
L 246.66738 195.710727 
L 249.054545 195.710727 
L 249.054545 195.710727 
" clip-path="url(#p17add5b39e)" style="fill: none; stroke: #000000; stroke-width: 1.5; stroke-linecap: square"/>
   </g>
   <g id="patch_3">
    <path d="M 36 203.7 
L 36 27.936 
" style="fill: none; stroke: #000000; stroke-width: 0.8; stroke-linejoin: miter; stroke-linecap: square"/>
   </g>
   <g id="patch_4">
    <path d="M 259.2 203.7 
L 259.2 27.936 
" style="fill: none; stroke: #000000; stroke-width: 0.8; stroke-linejoin: miter; stroke-linecap: square"/>
   </g>
   <g id="patch_5">
    <path d="M 36 203.7 
L 259.2 203.7 
" style="fill: none; stroke: #000000; stroke-width: 0.8; stroke-linejoin: miter; stroke-linecap: square"/>
   </g>
   <g id="patch_6">
    <path d="M 36 27.936 
L 259.2 27.936 
" style="fill: none; stroke: #000000; stroke-width: 0.8; stroke-linejoin: miter; stroke-linecap: square"/>
   </g>
  </g>
 </g>
 <defs>
  <clipPath id="p17add5b39e">
   <rect x="36" y="27.936" width="223.2" height="175.764"/>
  </clipPath>
 </defs>
</svg>
