<?xml version="1.0" encoding="utf-8" standalone="no"?>
<!DOCTYPE svg PUBLIC "-//W3C//DTD SVG 1.1//EN"
  "http://www.w3.org/Graphics/SVG/1.1/DTD/svg11.dtd">
<svg xmlns:xlink="http://www.w3.org/1999/xlink" width="288pt" height="232.8pt" viewBox="0 0 288 232.8" xmlns="http://www.w3.org/2000/svg" version="1.1">
 <metadata>
  <rdf:RDF xmlns:dc="http://purl.org/dc/elements/1.1/" xmlns:cc="http://creativecommons.org/ns#" xmlns:rdf="http://www.w3.org/1999/02/22-rdf-syntax-ns#">
   <cc:Work>
    <dc:type rdf:resource="http://purl.org/dc/dcmitype/StillImage"/>
    <dc:date>2022-04-13T12:20:28.126361</dc:date>
    <dc:format>image/svg+xml</dc:format>
    <dc:creator>
     <cc:Agent>
      <dc:title>Matplotlib v3.5.1, https://matplotlib.org/</dc:title>
     </cc:Agent>
    </dc:creator>
   </cc:Work>
  </rdf:RDF>
 </metadata>
 <defs>
  <style type="text/css">*{stroke-linejoin: round; stroke-linecap: butt}</style>
 </defs>
 <g id="figure_1">
  <g id="patch_1">
   <path d="M 0 232.8 
L 288 232.8 
L 288 0 
L 0 0 
L 0 232.8 
z
" style="fill: none"/>
  </g>
  <g id="axes_1">
   <g id="patch_2">
    <path d="M 36 203.7 
L 259.2 203.7 
L 259.2 27.936 
L 36 27.936 
z
" style="fill: #ffffff"/>
   </g>
   <g id="matplotlib.axis_1">
    <g id="xtick_1">
     <g id="line2d_1">
      <defs>
       <path id="m0a37986638" d="M 0 0 
L 0 3.5 
" style="stroke: #000000; stroke-width: 0.8"/>
      </defs>
      <g>
       <use xlink:href="#m0a37986638" x="44.074954" y="203.7" style="stroke: #000000; stroke-width: 0.8"/>
      </g>
     </g>
     <g id="text_1">
      <text style="font: 10px 'sans-serif'; text-anchor: middle" x="44.074954" y="218.298437" transform="rotate(-0, 44.074954, 218.298437)">-15</text>
     </g>
    </g>
    <g id="xtick_2">
     <g id="line2d_2">
      <g>
       <use xlink:href="#m0a37986638" x="78.583302" y="203.7" style="stroke: #000000; stroke-width: 0.8"/>
      </g>
     </g>
     <g id="text_2">
      <text style="font: 10px 'sans-serif'; text-anchor: middle" x="78.583302" y="218.298437" transform="rotate(-0, 78.583302, 218.298437)">-10</text>
     </g>
    </g>
    <g id="xtick_3">
     <g id="line2d_3">
      <g>
       <use xlink:href="#m0a37986638" x="113.091651" y="203.7" style="stroke: #000000; stroke-width: 0.8"/>
      </g>
     </g>
     <g id="text_3">
      <text style="font: 10px 'sans-serif'; text-anchor: middle" x="113.091651" y="218.298437" transform="rotate(-0, 113.091651, 218.298437)">-5</text>
     </g>
    </g>
    <g id="xtick_4">
     <g id="line2d_4">
      <g>
       <use xlink:href="#m0a37986638" x="147.6" y="203.7" style="stroke: #000000; stroke-width: 0.8"/>
      </g>
     </g>
     <g id="text_4">
      <text style="font: 10px 'sans-serif'; text-anchor: middle" x="147.6" y="218.298437" transform="rotate(-0, 147.6, 218.298437)">0</text>
     </g>
    </g>
    <g id="xtick_5">
     <g id="line2d_5">
      <g>
       <use xlink:href="#m0a37986638" x="182.108349" y="203.7" style="stroke: #000000; stroke-width: 0.8"/>
      </g>
     </g>
     <g id="text_5">
      <text style="font: 10px 'sans-serif'; text-anchor: middle" x="182.108349" y="218.298437" transform="rotate(-0, 182.108349, 218.298437)">5</text>
     </g>
    </g>
    <g id="xtick_6">
     <g id="line2d_6">
      <g>
       <use xlink:href="#m0a37986638" x="216.616698" y="203.7" style="stroke: #000000; stroke-width: 0.8"/>
      </g>
     </g>
     <g id="text_6">
      <text style="font: 10px 'sans-serif'; text-anchor: middle" x="216.616698" y="218.298437" transform="rotate(-0, 216.616698, 218.298437)">10</text>
     </g>
    </g>
    <g id="xtick_7">
     <g id="line2d_7">
      <g>
       <use xlink:href="#m0a37986638" x="251.125046" y="203.7" style="stroke: #000000; stroke-width: 0.8"/>
      </g>
     </g>
     <g id="text_7">
      <text style="font: 10px 'sans-serif'; text-anchor: middle" x="251.125046" y="218.298437" transform="rotate(-0, 251.125046, 218.298437)">15</text>
     </g>
    </g>
    <g id="text_8">
     <text style="font: 10px 'sans-serif'; text-anchor: middle" x="147.6" y="231.976562" transform="rotate(-0, 147.6, 231.976562)">x / $r_c$</text>
    </g>
   </g>
   <g id="matplotlib.axis_2">
    <g id="ytick_1">
     <g id="line2d_8">
      <defs>
       <path id="mfb0f15ca7c" d="M 0 0 
L -3.5 0 
" style="stroke: #000000; stroke-width: 0.8"/>
      </defs>
      <g>
       <use xlink:href="#mfb0f15ca7c" x="36" y="195.710727" style="stroke: #000000; stroke-width: 0.8"/>
      </g>
     </g>
     <g id="text_9">
      <text style="font: 10px 'sans-serif'; text-anchor: end" x="29" y="199.509946" transform="rotate(-0, 29, 199.509946)">0</text>
     </g>
    </g>
    <g id="ytick_2">
     <g id="line2d_9">
      <g>
       <use xlink:href="#mfb0f15ca7c" x="36" y="152.274097" style="stroke: #000000; stroke-width: 0.8"/>
      </g>
     </g>
     <g id="text_10">
      <text style="font: 10px 'sans-serif'; text-anchor: end" x="29" y="156.073316" transform="rotate(-0, 29, 156.073316)">1</text>
     </g>
    </g>
    <g id="ytick_3">
     <g id="line2d_10">
      <g>
       <use xlink:href="#mfb0f15ca7c" x="36" y="108.837466" style="stroke: #000000; stroke-width: 0.8"/>
      </g>
     </g>
     <g id="text_11">
      <text style="font: 10px 'sans-serif'; text-anchor: end" x="29" y="112.636685" transform="rotate(-0, 29, 112.636685)">2</text>
     </g>
    </g>
    <g id="ytick_4">
     <g id="line2d_11">
      <g>
       <use xlink:href="#mfb0f15ca7c" x="36" y="65.400836" style="stroke: #000000; stroke-width: 0.8"/>
      </g>
     </g>
     <g id="text_12">
      <text style="font: 10px 'sans-serif'; text-anchor: end" x="29" y="69.200055" transform="rotate(-0, 29, 69.200055)">3</text>
     </g>
    </g>
    <g id="text_13">
     <text style="font: 10px 'sans-serif'; text-anchor: middle" x="16.557812" y="115.818" transform="rotate(-90, 16.557812, 115.818)">$P$</text>
    </g>
    <g id="text_14">
     <text style="font: 10px 'sans-serif'; text-anchor: start" x="36" y="24.936" transform="rotate(-0, 36, 24.936)">1e-10</text>
    </g>
   </g>
   <g id="line2d_12">
    <path d="M 46.145455 195.710727 
L 50.919786 195.710727 
L 51.715508 193.440697 
L 52.51123 192.359467 
L 54.102674 190.692089 
L 57.285561 187.853395 
L 62.059893 183.626052 
L 65.242781 180.541618 
L 68.425668 177.123228 
L 71.608556 173.287474 
L 73.995722 170.088442 
L 76.382888 166.575234 
L 78.770053 162.71297 
L 81.157219 158.466287 
L 83.544385 153.799882 
L 85.931551 148.67948 
L 88.318717 143.073305 
L 90.705882 136.954155 
L 93.093048 130.302225 
L 95.480214 123.108828 
L 98.663102 112.69082 
L 101.845989 101.406402 
L 105.824599 86.372646 
L 112.190374 61.9734 
L 114.57754 53.602513 
L 116.168984 48.569819 
L 117.760428 44.14567 
L 119.351872 40.493416 
L 120.147594 39.011506 
L 120.943316 37.790893 
L 121.739037 36.853234 
L 122.534759 36.223333 
L 123.330481 35.925273 
L 124.126203 35.983046 
L 124.921925 36.420301 
L 125.717647 37.260062 
L 126.513369 38.524409 
L 127.309091 40.23414 
L 128.104813 42.408391 
L 128.900535 45.064236 
L 129.696257 48.216249 
L 131.287701 56.05182 
L 132.879144 65.963626 
L 134.470588 77.927894 
L 136.062032 91.829144 
L 137.653476 107.436363 
L 140.040642 133.162319 
L 143.223529 167.936342 
L 144.814973 182.637058 
L 145.610695 188.421784 
L 146.406417 192.699543 
L 147.202139 195.062038 
L 147.997861 195.062038 
L 148.793583 192.699543 
L 149.589305 188.421784 
L 150.385027 182.637058 
L 151.976471 167.936342 
L 154.363636 142.048377 
L 157.546524 107.436363 
L 159.137968 91.829144 
L 160.729412 77.927894 
L 162.320856 65.963626 
L 163.912299 56.05182 
L 165.503743 48.216249 
L 166.299465 45.064236 
L 167.095187 42.408391 
L 167.890909 40.23414 
L 168.686631 38.524409 
L 169.482353 37.260062 
L 170.278075 36.420301 
L 171.073797 35.983046 
L 171.869519 35.925273 
L 172.665241 36.223333 
L 173.460963 36.853234 
L 174.256684 37.790893 
L 175.052406 39.011506 
L 175.848128 40.493416 
L 177.439572 44.14567 
L 179.031016 48.569819 
L 180.62246 53.602513 
L 183.009626 61.9734 
L 186.988235 77.106621 
L 193.354011 101.406402 
L 196.536898 112.69082 
L 199.719786 123.108828 
L 202.106952 130.302225 
L 204.494118 136.954155 
L 206.881283 143.073305 
L 209.268449 148.67948 
L 211.655615 153.799882 
L 214.042781 158.466287 
L 216.429947 162.71297 
L 218.817112 166.575234 
L 221.204278 170.088442 
L 223.591444 173.287474 
L 226.774332 177.123228 
L 229.957219 180.541618 
L 233.140107 183.626052 
L 237.118717 187.165406 
L 241.097326 190.692089 
L 242.68877 192.359467 
L 243.484492 193.440697 
L 244.280214 195.710727 
L 249.054545 195.710727 
L 249.054545 195.710727 
" clip-path="url(#pb50ef2aa00)" style="fill: none; stroke: #000000; stroke-width: 1.5; stroke-linecap: square"/>
   </g>
   <g id="patch_3">
    <path d="M 36 203.7 
L 36 27.936 
" style="fill: none; stroke: #000000; stroke-width: 0.8; stroke-linejoin: miter; stroke-linecap: square"/>
   </g>
   <g id="patch_4">
    <path d="M 259.2 203.7 
L 259.2 27.936 
" style="fill: none; stroke: #000000; stroke-width: 0.8; stroke-linejoin: miter; stroke-linecap: square"/>
   </g>
   <g id="patch_5">
    <path d="M 36 203.7 
L 259.2 203.7 
" style="fill: none; stroke: #000000; stroke-width: 0.8; stroke-linejoin: miter; stroke-linecap: square"/>
   </g>
   <g id="patch_6">
    <path d="M 36 27.936 
L 259.2 27.936 
" style="fill: none; stroke: #000000; stroke-width: 0.8; stroke-linejoin: miter; stroke-linecap: square"/>
   </g>
  </g>
 </g>
 <defs>
  <clipPath id="pb50ef2aa00">
   <rect x="36" y="27.936" width="223.2" height="175.764"/>
  </clipPath>
 </defs>
</svg>
