<?xml version="1.0" encoding="utf-8" standalone="no"?>
<!DOCTYPE svg PUBLIC "-//W3C//DTD SVG 1.1//EN"
  "http://www.w3.org/Graphics/SVG/1.1/DTD/svg11.dtd">
<svg xmlns:xlink="http://www.w3.org/1999/xlink" width="288pt" height="172.8pt" viewBox="0 0 288 172.8" xmlns="http://www.w3.org/2000/svg" version="1.1">
 <metadata>
  <rdf:RDF xmlns:dc="http://purl.org/dc/elements/1.1/" xmlns:cc="http://creativecommons.org/ns#" xmlns:rdf="http://www.w3.org/1999/02/22-rdf-syntax-ns#">
   <cc:Work>
    <dc:type rdf:resource="http://purl.org/dc/dcmitype/StillImage"/>
    <dc:date>2022-04-13T11:45:20.493187</dc:date>
    <dc:format>image/svg+xml</dc:format>
    <dc:creator>
     <cc:Agent>
      <dc:title>Matplotlib v3.5.1, https://matplotlib.org/</dc:title>
     </cc:Agent>
    </dc:creator>
   </cc:Work>
  </rdf:RDF>
 </metadata>
 <defs>
  <style type="text/css">*{stroke-linejoin: round; stroke-linecap: butt}</style>
 </defs>
 <g id="figure_1">
  <g id="patch_1">
   <path d="M 0 172.8 
L 288 172.8 
L 288 0 
L 0 0 
L 0 172.8 
z
" style="fill: none"/>
  </g>
  <g id="axes_1">
   <g id="patch_2">
    <path d="M 36 151.2 
L 259.2 151.2 
L 259.2 20.736 
L 36 20.736 
z
" style="fill: #ffffff"/>
   </g>
   <g id="matplotlib.axis_1">
    <g id="xtick_1">
     <g id="line2d_1">
      <defs>
       <path id="mc94f556a6f" d="M 0 0 
L 0 3.5 
" style="stroke: #000000; stroke-width: 0.8"/>
      </defs>
      <g>
       <use xlink:href="#mc94f556a6f" x="46.145455" y="151.2" style="stroke: #000000; stroke-width: 0.8"/>
      </g>
     </g>
     <g id="text_1">
      <text style="font: 10px 'sans-serif'; text-anchor: middle" x="46.145455" y="165.798437" transform="rotate(-0, 46.145455, 165.798437)">0.0</text>
     </g>
    </g>
    <g id="xtick_2">
     <g id="line2d_2">
      <g>
       <use xlink:href="#mc94f556a6f" x="82.379221" y="151.2" style="stroke: #000000; stroke-width: 0.8"/>
      </g>
     </g>
     <g id="text_2">
      <text style="font: 10px 'sans-serif'; text-anchor: middle" x="82.379221" y="165.798437" transform="rotate(-0, 82.379221, 165.798437)">2.5</text>
     </g>
    </g>
    <g id="xtick_3">
     <g id="line2d_3">
      <g>
       <use xlink:href="#mc94f556a6f" x="118.612987" y="151.2" style="stroke: #000000; stroke-width: 0.8"/>
      </g>
     </g>
     <g id="text_3">
      <text style="font: 10px 'sans-serif'; text-anchor: middle" x="118.612987" y="165.798437" transform="rotate(-0, 118.612987, 165.798437)">5.0</text>
     </g>
    </g>
    <g id="xtick_4">
     <g id="line2d_4">
      <g>
       <use xlink:href="#mc94f556a6f" x="154.846753" y="151.2" style="stroke: #000000; stroke-width: 0.8"/>
      </g>
     </g>
     <g id="text_4">
      <text style="font: 10px 'sans-serif'; text-anchor: middle" x="154.846753" y="165.798437" transform="rotate(-0, 154.846753, 165.798437)">7.5</text>
     </g>
    </g>
    <g id="xtick_5">
     <g id="line2d_5">
      <g>
       <use xlink:href="#mc94f556a6f" x="191.080519" y="151.2" style="stroke: #000000; stroke-width: 0.8"/>
      </g>
     </g>
     <g id="text_5">
      <text style="font: 10px 'sans-serif'; text-anchor: middle" x="191.080519" y="165.798437" transform="rotate(-0, 191.080519, 165.798437)">10.0</text>
     </g>
    </g>
    <g id="xtick_6">
     <g id="line2d_6">
      <g>
       <use xlink:href="#mc94f556a6f" x="227.314286" y="151.2" style="stroke: #000000; stroke-width: 0.8"/>
      </g>
     </g>
     <g id="text_6">
      <text style="font: 10px 'sans-serif'; text-anchor: middle" x="227.314286" y="165.798437" transform="rotate(-0, 227.314286, 165.798437)">12.5</text>
     </g>
    </g>
    <g id="text_7">
     <text style="font: 10px 'sans-serif'; text-anchor: middle" x="147.6" y="179.476562" transform="rotate(-0, 147.6, 179.476562)">r / $r_c$</text>
    </g>
   </g>
   <g id="matplotlib.axis_2">
    <g id="ytick_1">
     <g id="line2d_7">
      <defs>
       <path id="mefff71198a" d="M 0 0 
L -3.5 0 
" style="stroke: #000000; stroke-width: 0.8"/>
      </defs>
      <g>
       <use xlink:href="#mefff71198a" x="36" y="145.269818" style="stroke: #000000; stroke-width: 0.8"/>
      </g>
     </g>
     <g id="text_8">
      <text style="font: 10px 'sans-serif'; text-anchor: end" x="29" y="149.069037" transform="rotate(-0, 29, 149.069037)">0</text>
     </g>
    </g>
    <g id="ytick_2">
     <g id="line2d_8">
      <g>
       <use xlink:href="#mefff71198a" x="36" y="111.383065" style="stroke: #000000; stroke-width: 0.8"/>
      </g>
     </g>
     <g id="text_9">
      <text style="font: 10px 'sans-serif'; text-anchor: end" x="29" y="115.182284" transform="rotate(-0, 29, 115.182284)">200</text>
     </g>
    </g>
    <g id="ytick_3">
     <g id="line2d_9">
      <g>
       <use xlink:href="#mefff71198a" x="36" y="77.496312" style="stroke: #000000; stroke-width: 0.8"/>
      </g>
     </g>
     <g id="text_10">
      <text style="font: 10px 'sans-serif'; text-anchor: end" x="29" y="81.29553" transform="rotate(-0, 29, 81.29553)">400</text>
     </g>
    </g>
    <g id="ytick_4">
     <g id="line2d_10">
      <g>
       <use xlink:href="#mefff71198a" x="36" y="43.609558" style="stroke: #000000; stroke-width: 0.8"/>
      </g>
     </g>
     <g id="text_11">
      <text style="font: 10px 'sans-serif'; text-anchor: end" x="29" y="47.408777" transform="rotate(-0, 29, 47.408777)">600</text>
     </g>
    </g>
    <g id="text_12">
     <text style="font: 10px 'sans-serif'; text-anchor: middle" x="3.832812" y="85.968" transform="rotate(-90, 3.832812, 85.968)">$v / \si{\kilo\meter\per\second} $</text>
    </g>
   </g>
   <g id="line2d_11">
    <path d="M 46.145455 145.269818 
L 49.366234 143.387221 
L 52.587013 141.504623 
L 55.807792 139.622026 
L 59.028571 137.739429 
L 62.249351 135.856831 
L 65.47013 133.974234 
L 68.690909 132.091636 
L 71.911688 130.209039 
L 75.132468 128.326442 
L 78.353247 126.443844 
L 81.574026 124.561247 
L 84.794805 122.678649 
L 88.015584 120.796052 
L 91.236364 118.913455 
L 94.457143 117.030857 
L 97.677922 115.14826 
L 100.898701 113.265662 
L 104.119481 111.383065 
L 107.34026 109.500468 
L 110.561039 107.61787 
L 113.781818 105.735273 
L 117.002597 103.852675 
L 120.223377 101.970078 
L 123.444156 100.087481 
L 126.664935 98.204883 
L 129.885714 96.322286 
L 133.106494 94.439688 
L 136.327273 92.557091 
L 139.548052 90.674494 
L 142.768831 88.791896 
L 145.98961 86.909299 
L 149.21039 85.026701 
L 152.431169 83.144104 
L 155.651948 81.261506 
L 158.872727 79.378909 
L 162.093506 77.496312 
L 165.314286 75.613714 
L 168.535065 73.731117 
L 171.755844 71.848519 
L 174.976623 69.965922 
L 178.197403 68.083325 
L 181.418182 66.200727 
L 184.638961 64.31813 
L 187.85974 62.435532 
L 191.080519 60.552935 
L 194.301299 58.670338 
L 197.522078 56.78774 
L 200.742857 54.905143 
L 203.963636 53.022545 
L 207.184416 51.139948 
L 210.405195 49.257351 
L 213.625974 47.374753 
L 216.846753 45.492156 
L 220.067532 43.609558 
L 223.288312 41.726961 
L 226.509091 39.844364 
L 229.72987 37.961766 
L 232.950649 36.079169 
L 236.171429 34.196571 
L 239.392208 32.313974 
L 242.612987 30.431377 
L 245.833766 28.548779 
L 249.054545 26.666182 
" clip-path="url(#pda13275115)" style="fill: none; stroke: #1f77b4; stroke-width: 1.5; stroke-linecap: square"/>
   </g>
   <g id="line2d_12">
    <path d="M 46.145455 145.269818 
L 49.366234 140.256436 
L 52.587013 135.28409 
L 55.807792 130.392707 
L 59.028571 125.62005 
L 62.249351 121.000791 
L 65.47013 116.565745 
L 68.690909 112.341302 
L 71.911688 108.349068 
L 75.132468 104.605714 
L 78.353247 101.123023 
L 81.574026 97.908097 
L 84.794805 94.96371 
L 88.015584 92.288747 
L 91.236364 89.878714 
L 94.457143 87.726275 
L 97.677922 85.821788 
L 100.898701 84.153827 
L 104.119481 82.709658 
L 107.34026 81.475674 
L 110.561039 80.437766 
L 113.781818 79.58165 
L 117.002597 78.893128 
L 120.223377 78.358296 
L 123.444156 77.963715 
L 126.664935 77.696529 
L 129.885714 77.544549 
L 133.106494 77.496312 
L 136.327273 77.541106 
L 139.548052 77.668983 
L 142.768831 77.870751 
L 145.98961 78.137954 
L 149.21039 78.462848 
L 152.431169 78.838361 
L 155.651948 79.258063 
L 158.872727 79.716119 
L 162.093506 80.207252 
L 165.314286 80.726698 
L 168.535065 81.27017 
L 171.755844 81.833816 
L 174.976623 82.414183 
L 178.197403 83.008182 
L 181.418182 83.613054 
L 184.638961 84.226342 
L 187.85974 84.845859 
L 191.080519 85.469665 
L 194.301299 86.096043 
L 197.522078 86.723474 
L 200.742857 87.35062 
L 203.963636 87.976304 
L 207.184416 88.599497 
L 210.405195 89.219297 
L 213.625974 89.83492 
L 216.846753 90.445687 
L 220.067532 91.051013 
L 223.288312 91.650395 
L 226.509091 92.243406 
L 229.72987 92.829684 
L 232.950649 93.408928 
L 236.171429 93.980889 
L 239.392208 94.545364 
L 242.612987 95.102193 
L 245.833766 95.651253 
L 249.054545 96.192451 
" clip-path="url(#pda13275115)" style="fill: none; stroke: #ff7f0e; stroke-width: 1.5; stroke-linecap: square"/>
   </g>
   <g id="patch_3">
    <path d="M 36 151.2 
L 36 20.736 
" style="fill: none; stroke: #000000; stroke-width: 0.8; stroke-linejoin: miter; stroke-linecap: square"/>
   </g>
   <g id="patch_4">
    <path d="M 259.2 151.2 
L 259.2 20.736 
" style="fill: none; stroke: #000000; stroke-width: 0.8; stroke-linejoin: miter; stroke-linecap: square"/>
   </g>
   <g id="patch_5">
    <path d="M 36 151.2 
L 259.2 151.2 
" style="fill: none; stroke: #000000; stroke-width: 0.8; stroke-linejoin: miter; stroke-linecap: square"/>
   </g>
   <g id="patch_6">
    <path d="M 36 20.736 
L 259.2 20.736 
" style="fill: none; stroke: #000000; stroke-width: 0.8; stroke-linejoin: miter; stroke-linecap: square"/>
   </g>
   <g id="legend_1">
    <g id="patch_7">
     <path d="M 43 58.09225 
L 94.232812 58.09225 
Q 96.232812 58.09225 96.232812 56.09225 
L 96.232812 27.736 
Q 96.232812 25.736 94.232812 25.736 
L 43 25.736 
Q 41 25.736 41 27.736 
L 41 56.09225 
Q 41 58.09225 43 58.09225 
z
" style="fill: #ffffff; opacity: 0.8; stroke: #cccccc; stroke-linejoin: miter"/>
    </g>
    <g id="line2d_13">
     <path d="M 45 33.834438 
L 55 33.834438 
L 65 33.834438 
" style="fill: none; stroke: #1f77b4; stroke-width: 1.5; stroke-linecap: square"/>
    </g>
    <g id="text_13">
     <text style="font: 10px 'sans-serif'; text-anchor: start" x="73" y="37.334438" transform="rotate(-0, 73, 37.334438)">VP1</text>
    </g>
    <g id="line2d_14">
     <path d="M 45 48.512563 
L 55 48.512563 
L 65 48.512563 
" style="fill: none; stroke: #ff7f0e; stroke-width: 1.5; stroke-linecap: square"/>
    </g>
    <g id="text_14">
     <text style="font: 10px 'sans-serif'; text-anchor: start" x="73" y="52.012563" transform="rotate(-0, 73, 52.012563)">VP2</text>
    </g>
   </g>
  </g>
 </g>
 <defs>
  <clipPath id="pda13275115">
   <rect x="36" y="20.736" width="223.2" height="130.464"/>
  </clipPath>
 </defs>
</svg>
